<?xml version="1.0" encoding="UTF-8"?>
<svg id="Layer_1" data-name="Layer 1" xmlns="http://www.w3.org/2000/svg" viewBox="0 0 879.55 848.59">
  <defs>
    <style>
      .cls-1 {
        fill: #231f20;
      }
    </style>
  </defs>
  <g>
    <path class="cls-1" d="m42.79,758.62v-10.79c0-8.05-4.57-12.62-11.7-12.62s-11.7,4.57-11.7,12.62v69.85c0,8.05,4.57,12.62,11.7,12.62s11.7-4.57,11.7-12.62v-22.67h-11.7v-18.29h31.09v40.96c0,18.47-12.43,30.9-31.09,30.9s-31.09-12.44-31.09-30.9v-69.85c0-18.47,12.43-30.9,31.09-30.9s31.09,12.43,31.09,30.9v10.79h-19.38Z"/>
    <path class="cls-1" d="m93.81,718.76h55.04v18.29h-35.66v35.66h28.34v18.29h-28.34v37.49h35.66v18.29h-55.04v-128Z"/>
    <path class="cls-1" d="m176.28,817.69v-69.85c0-18.47,12.43-30.9,31.09-30.9s31.09,12.43,31.09,30.9v69.85c0,18.47-12.43,30.9-31.09,30.9s-31.09-12.44-31.09-30.9Zm42.79,0v-69.85c0-8.05-4.57-12.62-11.7-12.62s-11.7,4.57-11.7,12.62v69.85c0,8.05,4.57,12.62,11.7,12.62s11.7-4.57,11.7-12.62Z"/>
    <path class="cls-1" d="m314.34,846.76l-14.08-52.85h-10.06v52.85h-19.38v-128h30.35c18.47,0,30.35,12.07,30.35,30.54v14.08c0,11.89-4.94,21.03-13.35,26.15l16.27,57.24h-20.11Zm-24.14-71.13h10.06c7.5,0,11.89-4.39,11.89-11.89v-14.81c0-7.5-4.39-11.89-11.89-11.89h-10.06v38.58Z"/>
    <path class="cls-1" d="m404.3,758.62v-10.79c0-8.05-4.57-12.62-11.7-12.62s-11.7,4.57-11.7,12.62v69.85c0,8.05,4.57,12.62,11.7,12.62s11.7-4.57,11.7-12.62v-22.67h-11.7v-18.29h31.09v40.96c0,18.47-12.43,30.9-31.09,30.9s-31.09-12.44-31.09-30.9v-69.85c0-18.47,12.43-30.9,31.09-30.9s31.09,12.43,31.09,30.9v10.79h-19.38Z"/>
    <path class="cls-1" d="m455.32,718.76h19.38v128h-19.38v-128Z"/>
    <path class="cls-1" d="m546.93,818.42h-20.85l-4.21,28.34h-19.38l21.21-128h25.97l21.21,128h-19.75l-4.21-28.34Zm-2.56-18.65l-7.86-53.58-7.86,53.58h15.73Z"/>
    <path class="cls-1" d="m686.27,818.42h-20.85l-4.21,28.34h-19.38l21.21-128h25.97l21.21,128h-19.75l-4.21-28.34Zm-2.56-18.65l-7.86-53.58-7.86,53.58h15.73Z"/>
    <path class="cls-1" d="m738.02,718.76h19.38v128h-19.38v-128Z"/>
    <path class="cls-1" d="m879.55,718.76v128h-19.38v-87.77l-18.1,87.77h-13.53l-18.1-87.77v87.77h-19.02v-128h27.43l16.82,81.74,16.09-81.74h27.79Z"/>
  </g>
  <g>
    <path class="cls-1" d="m711.62,378.65L433.92,19.91s-5.07-5.04-5.07,4.2v17.5c0,7.78-6.36,14.14-14.14,14.14h-14.13v53.32c0,7.78-6.36,14.14-14.14,14.14h-43.33c-1.63.19-4.84,1.48-4.84,8.77v5.19c-.01.14-.03,2.14,0,2.28.25,1.15.16,5.82,8.16,5.82h66.59s-.03-.03-.03-.04c9.02.26,10.71-5.73,11.02-8.4v-7.02c0-2.53,2.07-4.6,4.6-4.6h32.65c2.53,0,4.6,2.07,4.6,4.6v17.78c0,2.53-2.07,4.6-4.6,4.6h-18.97c-7.53.61-8.74,8.32-8.93,10.42v43.44c.11,2.63,1.58,11.46,16.05,11.61h41.49c4.64,0,8.44,3.8,8.44,8.44v32.62c0,4.64-3.8,8.44-8.44,8.44h-59.92c-4.64,0-8.44-3.8-8.44-8.44v-20.2c-.21-3.1-1.8-9.72-11.41-10.35h-66.68v-5.93l.13.11s-1.3-4.86,7.07-6.74h62.08c5.3,0,9.63-4.33,9.63-9.63v-37.2c0-5.3-4.33-9.63-9.63-9.63h-68.34c-4.2,0-7.79,2.73-9.1,6.51-.34.98-.53,2.03-.53,3.12v26.08c-.23,3.5-1.8,10.45-10.71,10.45h-38.73c-3.95,0-7.18,3.23-7.18,7.18v27.74c0,3.95,3.23,7.18,7.18,7.18h49.97v38.7s.52,18,18.88,18h46.5c9.38,0,17.05,7.67,17.05,17.05v46.42c.26,3.12,2.43,18.64,19.99,19.72h26.41c3.92,0,7.13,3.21,7.13,7.13v27.55c0,3.92-3.21,7.13-7.13,7.13h-50.6c-3.92,0-7.13-3.21-7.13-7.13v-11.03c-.55-3.8.6-12.83-16.99-12.83.03-.01-.97,0,.87,0h-45c-4.13.43-10.43,1.54-9.93,9.49,0,0,0,.54-.05.51v7.36h-47.56c-6.79,0-12.35,5.56-12.35,12.35v47.69c0,6.79,5.56,12.35,12.35,12.35h70.99c13.79,0,16.53,8.21,16.98,12.83v38.17c0,6.79,5.56,12.35,12.35,12.35h87.6c6.79,0,12.35-5.56,12.35-12.35v-47.69c0-6.79-5.56-12.35-12.35-12.35h-74.88c-10.51,0-12.58-8.48-12.99-11.81h93.42c9.85,0,17.92,8.06,17.92,17.92v58.18c0,9.85-8.06,17.92-17.92,17.92h-145.91v27.13c0,5.85,4.74,10.59,10.59,10.59h228.85c3.84,0,7.35-2.2,9.01-5.67l14.09-29.33h35.89c4.06,0,7.72-2.46,9.26-6.22l69-169c1.35-3.3.83-7.08-1.35-9.9Zm-187.17-29.28c0,4.29-3.51,7.8-7.8,7.8h-55.36c-4.29,0-7.8-3.51-7.8-7.8v-30.14c0-4.29,3.51-7.8,7.8-7.8h55.36c4.29,0,7.8,3.51,7.8,7.8v30.14Z"/>
    <path class="cls-1" d="m355.89,44.05h53.31c4.13,0,7.51-3.38,7.51-7.51V7.51c0-4.13-3.38-7.51-7.51-7.51h-53.31c-4.13,0-7.51,3.38-7.51,7.51v29.02c0,1.38.38,2.67,1.04,3.78,1.31,2.22,3.72,3.73,6.48,3.73Z"/>
    <path class="cls-1" d="m231.8,64.55h56.77s12.06.07,12.06,11.49v26.33c0,5.3,4.33,9.63,9.63,9.63h68.34c5.3,0,9.63-4.33,9.63-9.63v-37.2c0-4.6-3.27-8.48-7.61-9.41-.65-.14-1.33-.22-2.02-.22h-57.23c-2.49-.93-11.6-5.05-11.6-15.22v-22.6c0-5.26-4.28-9.57-9.53-9.63-.03,0-.07,0-.1,0h-68.34c-5.3,0-9.63,4.33-9.63,9.63v37.2c0,5.3,4.33,9.63,9.63,9.63Z"/>
    <path class="cls-1" d="m311.48,119.74h-73.26c-5.68,0-10.32,4.65-10.32,10.32v39.88c0,5.68,4.65,10.32,10.32,10.32h73.26c5.68,0,10.32-4.65,10.32-10.32v-39.88c0-2.63-1-5.02-2.63-6.85-1.89-2.12-4.64-3.47-7.69-3.47Z"/>
    <rect class="cls-1" x="186.19" y="193.36" width="70.97" height="45.74" rx="7.8" ry="7.8"/>
    <path class="cls-1" d="m276.37,360.2c0-4.29-3.51-7.8-7.8-7.8h-55.36c-4.29,0-7.8,3.51-7.8,7.8v30.14c0,4.29,3.51,7.8,7.8,7.8h55.36c.33,0,.66-.03.98-.07,3.83-.49,6.82-3.77,6.82-7.73v-30.14Z"/>
    <path class="cls-1" d="m253.85,324.97h24.46c13.79,0,16.53,8.21,16.98,12.83v38.17c0,6.79,5.56,12.35,12.35,12.35h87.6c6.79,0,12.35-5.56,12.35-12.35v-47.69c0-6.79-5.56-12.35-12.35-12.35h-74.88c-10.51,0-12.58-8.48-12.99-11.81-.1-.81-.1-1.32-.1-1.32v-37.87c0-6.79-5.56-12.35-12.35-12.35h-87.6c-6.79,0-12.35,5.56-12.35,12.35v47.69c0,6.79,5.56,12.35,12.35,12.35h46.53Z"/>
    <path class="cls-1" d="m355.03,552.98c4.29,0,7.8-3.51,7.8-7.8v-30.14c0-4.29-3.51-7.8-7.8-7.8h-55.36c-4.29,0-7.8,3.51-7.8,7.8v30.14c0,4.29,3.51,7.8,7.8,7.8h55.36Z"/>
  </g>
</svg>